<?xml version="1.0" encoding="UTF-8" standalone="no"?> <svg xmlns="http://www.w3.org/2000/svg" viewBox="0 0 64 64"><defs><style>.cls-1{fill:lime;}</style></defs><g id="Layer_23" data-name="Layer 23"><path class="cls-1" d="M26.68,20.73a1,1,0,0,0-.87-.5H20.16L18.9,18a1,1,0,0,0-1.73,1l1.55,2.69a1,1,0,0,0,.86.5h5.65L28,27a1,1,0,0,0,1.74-1Z"/><path class="cls-1" d="M37.07,21.23,34.31,26a1,1,0,0,0,.87,1.5A1,1,0,0,0,36,27l3.05-5.27a1,1,0,0,0,0-1l-2.81-4.89,1.17-1.91a1,1,0,1,0-1.71-1l-1.48,2.43a1,1,0,0,0,0,1Z"/><path class="cls-1" d="M38.37,31a1,1,0,1,0,0,2h6.05a1,1,0,0,0,.86-.5l3.12-5.4a1,1,0,0,0,0-1l-1.55-2.68a1,1,0,0,0-1.37-.37,1,1,0,0,0-.36,1.37l1.25,2.18L43.84,31Z"/><path class="cls-1" d="M56.17,39.59l-1.55-2.68a1,1,0,0,0-.87-.5H47.53a1,1,0,0,0-.87.5L43.84,41.8h-5l-2.3-4L36,37a1,1,0,0,0-1.33-.38l-.06,0A1,1,0,0,0,34.31,38l.47.81,2.29,4-2.82,4.89a1,1,0,0,0,0,1l3.11,5.4a1,1,0,0,0,.87.5h4.3a2.12,2.12,0,0,1,0-2H38.8l-2.53-4.4L38.8,43.8h5.62a1,1,0,0,0,.86-.5l2.83-4.89h5.07l1.26,2.18A1,1,0,0,0,55.8,41,1,1,0,0,0,56.17,39.59Z"/><path class="cls-1" d="M29.35,36.66A1,1,0,0,0,28,37L25.23,41.8H19.58a1,1,0,0,0-.86.5L15.6,47.69a1,1,0,0,0,0,1l1.55,2.69a1,1,0,0,0,.87.5,1,1,0,0,0,.5-.14,1,1,0,0,0,.36-1.36l-1.25-2.19,2.53-4.39h5.65a1,1,0,0,0,.87-.51l3-5.26A1,1,0,0,0,29.35,36.66Z"/><path class="cls-1" d="M17.34,37.91,20.16,33h5.47a1,1,0,1,0,0-2H19.58a1,1,0,0,0-.86.5l-2.83,4.9H10.25a1,1,0,0,0-.87.5L7.83,39.59a1,1,0,0,0,.87,1.5,1,1,0,0,0,.86-.5l1.26-2.18h5.65A1,1,0,0,0,17.34,37.91Z"/><path d="M47.33,18.3a4.13,4.13,0,0,0-7,2.92,4.13,4.13,0,0,0,7,2.92A4.13,4.13,0,0,0,47.33,18.3Zm-1.41,4.43a2.19,2.19,0,0,1-3,0,2.13,2.13,0,0,1-.63-1.51,2.13,2.13,0,1,1,3.64,1.51Z"/><path d="M41.15,7.82a4.13,4.13,0,1,0,0,5.84A4.11,4.11,0,0,0,41.15,7.82Zm-1.42,4.42a2.13,2.13,0,0,1-3,0,2.1,2.1,0,0,1-.62-1.5,2.12,2.12,0,0,1,2.13-2.13,2.1,2.1,0,0,1,1.5.62A2.13,2.13,0,0,1,39.73,12.24Z"/><path d="M19.39,12.91A4.13,4.13,0,1,0,16.47,20a4.09,4.09,0,0,0,2.92-1.21A4.13,4.13,0,0,0,19.39,12.91ZM18,17.34a2.19,2.19,0,0,1-3,0,2.13,2.13,0,0,1,1.5-3.64A2.13,2.13,0,0,1,18,17.34Z"/><path d="M10.05,39.88a4.13,4.13,0,1,0,0,5.84A4.11,4.11,0,0,0,10.05,39.88ZM8.64,44.3a2.14,2.14,0,0,1-3,0A2.1,2.1,0,0,1,5,42.8a2.13,2.13,0,1,1,3.64,1.5Z"/><path d="M22.51,50.67a4.13,4.13,0,0,0-5.84,0,4.13,4.13,0,1,0,7,2.92A4.07,4.07,0,0,0,22.51,50.67Zm-1.42,4.42a2.13,2.13,0,0,1-3-3,2.17,2.17,0,0,1,3,0,2.11,2.11,0,0,1,0,3Z"/><path d="M47.33,50.67a4.13,4.13,0,0,0-5.84,0,4,4,0,0,0-1.08,1.92,3.91,3.91,0,0,0,0,2,4,4,0,0,0,1.08,1.92,4.13,4.13,0,0,0,5.84-5.84Zm-1.41,4.42a2.13,2.13,0,0,1-3,0,2.28,2.28,0,0,1-.38-.5,2.12,2.12,0,0,1,0-2,2.33,2.33,0,0,1,.38-.51,2.1,2.1,0,0,1,1.5-.62,2.13,2.13,0,0,1,1.51,3.63Z"/><path d="M59.79,39.88a4.11,4.11,0,0,0-2.92-1.21,3.93,3.93,0,0,0-1.14.16,4,4,0,0,0-1.73,1l0,.05a4.13,4.13,0,1,0,7,2.92A4.09,4.09,0,0,0,59.79,39.88ZM58.38,44.3a2.13,2.13,0,0,1-3-3,2.2,2.2,0,0,1,3,0A2.13,2.13,0,0,1,59,42.8,2.1,2.1,0,0,1,58.38,44.3Z"/><path d="M32,24.64a7.37,7.37,0,1,0,2.78,14.19,6.65,6.65,0,0,0,1.73-1A7.36,7.36,0,0,0,32,24.64Zm2.71,12-.06,0a5.29,5.29,0,0,1-2.65.7,5.38,5.38,0,1,1,2.71-.74Z"/></g></svg>